<svg width="25" height="24" viewBox="0 0 25 24" fill="none" xmlns="http://www.w3.org/2000/svg">
<g clip-path="url(#clip0_9274_7543)">
<path d="M16.7653 24.0033C21.0365 24.0033 24.4989 20.5409 24.4989 16.2697C24.4989 11.9985 21.0365 8.53601 16.7653 8.53601C12.4941 8.53601 9.03162 11.9985 9.03162 16.2697C9.03162 20.5409 12.4941 24.0033 16.7653 24.0033Z" fill="#FF4949"/>
<path d="M22.2339 21.7379L11.2969 10.8009C14.3121 7.78513 19.2187 7.78513 22.2339 10.8009C25.2497 13.8161 25.2497 18.7227 22.2339 21.7379Z" fill="#F30051"/>
<path d="M16.7652 21.1914C19.4834 21.1914 21.6869 18.9879 21.6869 16.2697C21.6869 13.5515 19.4834 11.3479 16.7652 11.3479C14.0469 11.3479 11.8434 13.5515 11.8434 16.2697C11.8434 18.9879 14.0469 21.1914 16.7652 21.1914Z" fill="#F5FAFF"/>
<path d="M20.2456 19.7502L13.2852 12.7898C15.2041 10.8709 18.3267 10.8709 20.2456 12.7898C22.1645 14.7087 22.1645 17.8313 20.2456 19.7502Z" fill="#DFE9EE"/>
<path d="M18.2567 14.7782C17.4341 13.9556 16.0964 13.9556 15.2738 14.7782C14.4512 15.6008 14.4512 16.9385 15.2738 17.7611C16.0964 18.5837 17.4341 18.5837 18.2567 17.7611C19.0793 16.9385 19.0793 15.6008 18.2567 14.7782Z" fill="#FF4949"/>
<path d="M18.2567 17.7611L15.2738 14.7782C16.0964 13.9556 17.4341 13.9556 18.2567 14.7782C19.0793 15.6008 19.0793 16.9385 18.2567 17.7611Z" fill="#F30051"/>
<path d="M12.5467 5.1184V9.38561L11.2254 10.7299L9.8811 12.0981H5.61155L0.504395 6.96421L4.8766 6.08958L6.30056 5.80507L6.58507 4.38158L7.46157 0L12.5467 5.1184Z" fill="#76E2F8"/>
<path d="M12.5468 5.1184V9.38561L11.2255 10.7299L6.30066 5.80507L6.58517 4.38158L7.46167 0L12.5468 5.1184Z" fill="#4BB9EC"/>
<path d="M16.2679 14.7786L15.7711 15.2759L15.2737 15.7728L14.0176 14.5166L14.5149 14.0198L15.0117 13.5225L16.2679 14.7786Z" fill="#575F64"/>
<path d="M14.512 14.0292L15.009 13.5322L16.2649 14.7881L15.7679 15.2852L14.512 14.0292Z" fill="#474F54"/>
<path d="M13.0233 9.54523L12.3591 11.864L10.0403 12.5277L4.87646 6.08984L5.73094 5.23584L6.58494 4.38184L13.0233 9.54523Z" fill="#575F64"/>
<path d="M13.0233 9.54523L12.3591 11.864L5.73096 5.23584L6.58496 4.38184L13.0233 9.54523Z" fill="#474F54"/>
<path d="M15.0118 14.5161C14.1896 15.3387 12.8514 15.3387 12.0288 14.5161L10.0405 12.5274L11.532 11.0364L13.0234 9.54492L15.0118 11.5332C15.8344 12.3558 15.8344 13.694 15.0118 14.5161Z" fill="#76E2F8"/>
<path d="M15.0117 14.5161L11.532 11.0364L13.0234 9.54492L15.0117 11.5332C15.8343 12.3558 15.8343 13.694 15.0117 14.5161Z" fill="#4BB9EC"/>
</g>
<defs>
<clipPath id="clip0_9274_7543">
<rect width="24" height="24" fill="white" transform="translate(0.5)"/>
</clipPath>
</defs>
</svg>
