<svg width="36" height="36" viewBox="0 0 36 36" fill="none" xmlns="http://www.w3.org/2000/svg">
<path d="M30.708 11.6031C30.6815 11.598 30.6548 11.5937 30.6277 11.5897L25.4022 10.8303L23.0645 6.09342C23.0196 6.00228 22.9758 5.91456 22.9339 5.83081C22.8949 5.75294 22.8562 5.67904 22.8189 5.60496C22.8162 5.59984 22.8066 5.58089 22.8039 5.57597C22.7636 5.49809 22.7228 5.42458 22.6876 5.35732C22.6842 5.35087 22.6734 5.33079 22.67 5.32454C22.6266 5.24666 22.5847 5.17239 22.5487 5.10986C22.5445 5.10247 22.5341 5.08447 22.5298 5.07708C22.4849 5.00148 22.4401 4.9291 22.3964 4.85976C22.3896 4.84896 22.3812 4.8355 22.3759 4.82717C22.3314 4.75782 22.2853 4.69226 22.2332 4.61799C22.2247 4.60605 22.2137 4.59033 22.2061 4.5799C22.1493 4.50184 22.0917 4.42757 22.0332 4.35633C22.0269 4.34875 22.0205 4.34079 22.0136 4.33264C21.9513 4.25742 21.8869 4.18637 21.8217 4.11816C21.8117 4.10774 21.7999 4.09542 21.7914 4.08689C21.7228 4.01698 21.6497 3.94877 21.5729 3.88131C21.5631 3.8726 21.5523 3.86332 21.5439 3.85612C21.4623 3.7862 21.3742 3.71988 21.2974 3.66418C21.2906 3.65925 21.2754 3.64845 21.2688 3.64372C21.1777 3.58005 21.0805 3.51885 20.9804 3.46239C20.9801 3.4622 20.9801 3.46201 20.9797 3.46182C20.9759 3.45974 20.9721 3.45746 20.9681 3.45519C20.8692 3.39948 20.7639 3.34814 20.6562 3.29982C20.6523 3.29812 20.6485 3.29622 20.6445 3.29452C20.1869 3.09576 19.6717 2.97639 19.0669 2.93262C18.965 2.92504 18.8646 2.92163 18.7661 2.92163C16.1204 2.92163 14.8468 5.32245 14.7073 5.60268L12.1269 10.8303L6.8548 11.5963C6.83509 11.5991 6.81577 11.6024 6.79606 11.6058C5.38164 11.8591 3.78362 12.149 2.85046 14.0278C2.8317 14.0657 2.81295 14.1036 2.79532 14.1417C2.77429 14.187 2.75326 14.2328 2.73735 14.2692C2.69812 14.3592 2.65909 14.4519 2.62044 14.5525C2.57705 14.6669 2.53821 14.7876 2.50429 14.9093C2.49103 14.957 2.47796 15.0042 2.46299 15.0671C2.44916 15.1247 2.43836 15.1817 2.42869 15.2315C2.40482 15.356 2.3872 15.4805 2.37375 15.6022C2.37299 15.6086 2.37242 15.6152 2.37166 15.6219C2.21705 17.3961 3.244 18.7404 3.69949 19.2368C3.72204 19.2611 3.74516 19.285 3.76884 19.3083L8.02423 23.4568L7.04143 29.1844C7.02911 29.2562 7.02116 29.3286 7.01775 29.4015C6.95939 30.5999 6.88682 32.0915 8.27244 33.3594L8.29935 33.3841C8.35846 33.4373 8.41985 33.4906 8.48484 33.5434C8.50606 33.5607 8.52823 33.5783 8.55078 33.5957L9.65749 32.1762L8.56688 33.6084L8.58166 33.62C8.62467 33.6537 8.66806 33.6874 8.71183 33.7194C8.79141 33.778 8.87516 33.8365 8.96648 33.8972C9.0669 33.9637 9.17377 34.0275 9.28916 34.0899C9.32478 34.1092 9.3604 34.1262 9.39886 34.145C9.46972 34.1797 9.53983 34.2145 9.60747 34.2435C9.65389 34.2634 9.69918 34.2837 9.75583 34.3025C9.75697 34.303 9.77288 34.3089 9.77402 34.3095C9.82669 34.3273 9.87766 34.3489 9.9309 34.3667C9.98831 34.3858 10.0446 34.4042 10.1024 34.4184C10.1041 34.4188 10.1272 34.4254 10.1291 34.4258C10.1702 34.437 10.2111 34.4487 10.2418 34.4561C10.3146 34.4739 10.3872 34.4889 10.4652 34.5039C10.4948 34.5095 10.5245 34.5152 10.5531 34.52C10.6333 34.5334 10.7127 34.5438 10.8 34.5531L10.8455 34.5579C10.9332 34.5662 11.0202 34.5707 11.1066 34.5743C11.1151 34.5747 11.124 34.5749 11.1291 34.5751C12.0498 34.6035 12.863 34.325 13.3672 34.0946C13.3983 34.0804 13.4288 34.0656 13.4587 34.0497L13.832 33.8528C13.842 33.8477 13.8521 33.8422 13.8619 33.8367C13.8739 33.8307 13.8858 33.8246 13.8975 33.8185L18.7653 31.2597L23.6225 33.8132C23.6297 33.817 23.6371 33.8212 23.6443 33.8244C23.6448 33.8248 23.6452 33.825 23.6458 33.8252L24.1109 34.07C24.1469 34.0891 24.1835 34.1067 24.2208 34.1232C24.2725 34.1463 24.3271 34.1694 24.3728 34.1878C24.397 34.1977 24.4222 34.2075 24.4469 34.217C24.4832 34.2312 24.5192 34.2452 24.5503 34.2568C24.5793 34.2674 24.6096 34.2765 24.6511 34.2924C24.6528 34.2932 24.6706 34.2992 24.6723 34.2998L24.7309 34.3197C24.7735 34.3339 24.8171 34.3474 24.8575 34.3597L24.9272 34.3803C24.9762 34.3945 25.0263 34.4082 25.0844 34.4233L25.1273 34.4341C25.186 34.4487 25.2449 34.4622 25.3082 34.4753C25.3169 34.4771 25.3234 34.4783 25.3321 34.48C25.6479 34.5425 25.9638 34.5772 26.2719 34.5772C27.1025 34.5772 27.8705 34.3483 28.5543 33.8964C30.5043 32.6069 30.5902 31.1288 30.4996 29.3301C30.496 29.2583 30.488 29.187 30.4759 29.1162L29.5047 23.456L33.8472 19.2232C33.89 19.1813 33.9308 19.1374 33.9694 19.0915C33.9994 19.0559 34.0321 19.0151 34.0664 18.9719L34.0863 18.9464C34.1134 18.9119 34.1413 18.8753 34.1767 18.8278L34.1995 18.7967C34.2275 18.7582 34.2565 18.7177 34.2883 18.6713L34.3164 18.6303C34.3525 18.5771 34.3893 18.5218 34.4257 18.463C34.427 18.4609 34.4441 18.4333 34.4454 18.4312C34.4797 18.3761 34.5136 18.3186 34.5462 18.2616C34.5608 18.2362 34.575 18.2101 34.5892 18.1837L34.6013 18.1616C34.6208 18.1258 34.64 18.0898 34.6593 18.0521C34.6792 18.0132 34.6987 17.974 34.7175 17.9351C34.7343 17.9003 34.7506 17.865 34.769 17.8245C34.7895 17.7792 34.8099 17.7337 34.83 17.686C34.8406 17.6608 34.8505 17.6352 34.8586 17.6146C34.9085 17.4872 34.9537 17.358 34.9926 17.2373C34.9956 17.2282 34.9988 17.2176 35.0007 17.2112C35.0026 17.2051 35.0045 17.199 35.0064 17.193C35.0263 17.1248 35.0445 17.0554 35.0657 16.97L35.0811 16.9055C35.0981 16.8315 35.1131 16.7566 35.1252 16.6867L35.1381 16.6066C35.2588 15.8377 35.1707 15.0891 34.8766 14.3816C33.923 12.0869 32.2962 11.8216 30.708 11.6031Z" fill="#F1F1F1"/>
<path d="M30.5485 11.4436C30.522 11.4385 30.4953 11.4341 30.4682 11.4301L25.2427 10.6707L22.905 5.93369C22.8601 5.84255 22.8163 5.75482 22.7743 5.67107C22.7352 5.5932 22.6964 5.51931 22.6591 5.44522C22.6564 5.44011 22.6467 5.42116 22.6441 5.41623C22.6028 5.33912 22.5638 5.26446 22.5279 5.19758C22.5243 5.19114 22.5137 5.17124 22.5101 5.1648C22.4671 5.08674 22.4245 5.01284 22.3887 4.95013C22.3845 4.94293 22.3741 4.92474 22.3697 4.91754C22.3252 4.84156 22.2801 4.76937 22.2363 4.70002C22.2295 4.68922 22.221 4.67596 22.2157 4.66762C22.171 4.59846 22.1255 4.53253 22.0732 4.45825C22.0647 4.44632 22.0537 4.43059 22.0463 4.42017C21.9896 4.34192 21.9311 4.26859 21.8731 4.19678C21.8671 4.1892 21.8604 4.18105 21.8538 4.1731C21.7915 4.09787 21.7268 4.02682 21.6617 3.95861C21.6518 3.94819 21.6399 3.93587 21.6315 3.92716C21.5633 3.85705 21.4898 3.78903 21.4131 3.72177C21.4032 3.71305 21.3924 3.70358 21.3841 3.69657C21.3026 3.62627 21.2145 3.55977 21.1376 3.50463C21.1308 3.4999 21.1156 3.48891 21.1088 3.48417C21.0173 3.42107 20.9206 3.35931 20.8204 3.30265C20.82 3.30246 20.8198 3.30227 20.8195 3.30209C20.8159 3.29981 20.8119 3.29773 20.8081 3.29564C20.7084 3.24164 20.6038 3.1884 20.4962 3.14008C20.4922 3.13838 20.4884 3.13667 20.4845 3.13497C20.028 2.93375 19.5117 2.81684 18.9069 2.77307C18.8052 2.76569 18.7047 2.76208 18.6062 2.76208C15.9604 2.76208 14.6869 5.16291 14.5475 5.44314L11.9672 10.6707L6.69495 11.4369C6.67544 11.4396 6.65592 11.4428 6.63621 11.4462C5.22123 11.6967 3.61885 11.987 2.69061 13.8685C2.67186 13.9064 2.65291 13.9444 2.63529 13.9823C2.61407 14.0276 2.59323 14.0735 2.5775 14.1099C2.53847 14.1999 2.49906 14.2923 2.46059 14.3931C2.41701 14.5074 2.37817 14.6279 2.34445 14.7499C2.33118 14.7976 2.31811 14.845 2.30314 14.9077C2.2895 14.9653 2.27832 15.0224 2.26885 15.0724C2.24459 15.1967 2.22584 15.321 2.2139 15.4428C2.21333 15.4492 2.21257 15.4559 2.212 15.4625C2.0428 17.2354 3.08434 18.5811 3.54003 19.0775C3.56257 19.1019 3.58569 19.1256 3.60956 19.1489L7.86476 23.2974L6.88215 29.0252C6.86983 29.097 6.86188 29.1694 6.85847 29.2422C6.80011 30.4406 6.72754 31.9323 8.11316 33.2001L8.14026 33.2245C8.19937 33.278 8.26076 33.3312 8.32575 33.3839C8.34697 33.4011 8.36933 33.4189 8.39169 33.4364L9.4984 32.0166L8.40779 33.4489L8.42257 33.4604C8.46577 33.4942 8.50897 33.5279 8.55274 33.5597C8.63251 33.6184 8.71607 33.6772 8.80758 33.7376C8.908 33.8039 9.01468 33.8682 9.13007 33.9305C9.16569 33.9496 9.20131 33.9669 9.23977 33.9856C9.31045 34.0203 9.38055 34.055 9.44838 34.084C9.4948 34.1041 9.54047 34.123 9.59693 34.1431C9.59788 34.1433 9.61398 34.1495 9.61512 34.1501C9.66704 34.1694 9.71876 34.1895 9.772 34.2071C9.82923 34.2263 9.88569 34.2439 9.9431 34.2589C9.94499 34.2592 9.96811 34.2661 9.97 34.2664C10.0109 34.2778 10.052 34.2892 10.0826 34.2966C10.1555 34.3144 10.2281 34.3297 10.3061 34.3447C10.3357 34.3504 10.3654 34.3561 10.3939 34.3608C10.474 34.3741 10.5534 34.3845 10.6407 34.3938L10.6862 34.3985C10.7739 34.4068 10.8607 34.412 10.9473 34.415C10.9556 34.4154 10.9647 34.4156 10.9699 34.4158C11.8905 34.436 12.7035 34.1656 13.2079 33.9352C13.239 33.9212 13.2693 33.9061 13.2994 33.8902L13.6727 33.6935C13.6827 33.6882 13.6928 33.6829 13.7026 33.6776C13.7146 33.6715 13.7265 33.6654 13.7383 33.6592L18.606 31.1003L23.4636 33.6541C23.4709 33.6579 23.478 33.6622 23.4855 33.6652C23.4859 33.6654 23.4865 33.6658 23.4871 33.666L23.952 33.911C23.988 33.9299 24.0248 33.9478 24.0621 33.964C24.1138 33.987 24.1684 34.0099 24.2139 34.0285C24.2379 34.0383 24.2633 34.0484 24.2881 34.0578C24.3245 34.0719 24.3603 34.0861 24.3916 34.0976C24.4206 34.1084 24.4502 34.1192 24.4922 34.1334C24.4939 34.134 24.5117 34.1403 24.5134 34.1408L24.572 34.1607C24.6146 34.1749 24.6584 34.1884 24.6987 34.2007L24.7683 34.2213C24.8175 34.2358 24.8674 34.2494 24.9257 34.2644L24.9685 34.2752C25.0271 34.2896 25.0862 34.303 25.1495 34.3165C25.158 34.3184 25.1643 34.3195 25.173 34.3212C25.4894 34.3824 25.8049 34.4184 26.1132 34.4184C26.9438 34.4184 27.7118 34.1895 28.3956 33.7376C30.3456 32.4481 30.4313 30.97 30.3409 29.1715C30.3371 29.0997 30.3291 29.0284 30.317 28.9578L29.3458 23.2976L33.6883 19.0648C33.7313 19.0229 33.7719 18.9789 33.8105 18.9333C33.8405 18.8977 33.8734 18.8569 33.9077 18.8135L33.9276 18.788C33.9547 18.7535 33.9826 18.7169 34.018 18.6693L34.0407 18.6383C34.0688 18.5996 34.0976 18.5589 34.1296 18.5127L34.1576 18.4719C34.1938 18.4185 34.2296 18.3626 34.267 18.3044C34.2683 18.3023 34.2854 18.2749 34.2867 18.2728C34.321 18.2176 34.3549 18.1599 34.3873 18.103C34.4019 18.0776 34.4161 18.0517 34.4305 18.0253L34.4424 18.003C34.4619 17.9672 34.4811 17.9312 34.5004 17.8935C34.5203 17.8548 34.5398 17.8154 34.5588 17.7765C34.5756 17.7417 34.5919 17.7063 34.6105 17.6657C34.631 17.6206 34.6512 17.5751 34.6715 17.5272C34.6821 17.5022 34.6918 17.4766 34.7001 17.456C34.7501 17.3286 34.7964 17.1998 34.8341 17.0787C34.8371 17.0694 34.8403 17.059 34.8424 17.0524C34.8441 17.0463 34.8462 17.0403 34.8479 17.0344C34.8676 16.9662 34.8862 16.8966 34.9074 16.8112L34.9227 16.7466C34.9396 16.6727 34.9548 16.5978 34.9667 16.5279L34.9798 16.4478C35.1005 15.6791 35.0124 14.9303 34.7183 14.223C33.7637 11.9273 32.1367 11.662 30.5485 11.4436Z" fill="#E2E2E2"/>
<path d="M30.3888 11.2841C30.3623 11.279 30.3356 11.2744 30.3087 11.2704L25.083 10.511L22.7453 5.77419C22.7004 5.68325 22.6568 5.59533 22.6147 5.51177C22.5757 5.4339 22.5376 5.35963 22.4995 5.28592C22.4969 5.2808 22.4872 5.26186 22.4846 5.25693C22.4444 5.17887 22.4037 5.10535 22.3682 5.03828C22.3646 5.03184 22.3542 5.01175 22.3506 5.0055C22.308 4.92744 22.2651 4.85335 22.2291 4.79083C22.225 4.78344 22.2144 4.76544 22.2102 4.75805C22.1659 4.68207 22.1206 4.61007 22.0766 4.54072C22.07 4.53011 22.0615 4.51647 22.056 4.50832C22.0113 4.43897 21.9656 4.37323 21.9133 4.29914C21.9048 4.28701 21.8938 4.27129 21.8864 4.26087C21.8297 4.1828 21.7718 4.10891 21.7134 4.03729C21.7071 4.02971 21.7007 4.02175 21.6941 4.01379C21.6317 3.93857 21.5671 3.86771 21.5019 3.79931C21.4921 3.78889 21.4802 3.77657 21.4716 3.76786C21.403 3.69794 21.3299 3.62973 21.2532 3.56228C21.2433 3.55356 21.2325 3.54409 21.2242 3.53708C21.1421 3.46754 21.0552 3.39971 20.9779 3.34495C20.971 3.34021 20.9559 3.32941 20.9491 3.32468C20.8579 3.2612 20.7609 3.19981 20.6609 3.14316C20.6605 3.14297 20.6603 3.14278 20.6599 3.14259C20.6561 3.14051 20.6523 3.13843 20.6484 3.13615C20.5491 3.0812 20.4441 3.02891 20.3365 2.98078C20.3327 2.97889 20.3287 2.97737 20.3247 2.97548C19.8666 2.77861 19.352 2.65735 18.7474 2.61358C18.6454 2.60638 18.5452 2.60278 18.4465 2.60278C15.8007 2.60278 14.5272 5.0036 14.3876 5.28365L11.8073 10.5112L6.53542 11.2773C6.51572 11.2801 6.4962 11.2833 6.47668 11.2867C5.06226 11.5401 3.46424 11.83 2.53108 13.709C2.51214 13.7469 2.49357 13.785 2.47576 13.8227C2.45454 13.8681 2.43369 13.914 2.41797 13.9502C2.37894 14.0402 2.33953 14.1326 2.30106 14.2334C2.25729 14.3477 2.21826 14.4682 2.18473 14.5902C2.17146 14.6378 2.15839 14.6851 2.14342 14.7479C2.12978 14.8055 2.11879 14.8625 2.10913 14.9123C2.08506 15.0368 2.06668 15.1613 2.05399 15.2827C2.05323 15.2892 2.05266 15.2958 2.05209 15.3024C1.88289 17.0754 2.92424 18.4208 3.38012 18.9174C3.40247 18.9417 3.42559 18.9657 3.44946 18.9888L7.70485 23.1374L6.72205 28.8652C6.70993 28.937 6.70178 29.0094 6.69818 29.0821C6.64001 30.2805 6.56744 31.7721 7.95306 33.04L7.98016 33.0645C8.03927 33.1179 8.10047 33.1711 8.16546 33.2238C8.18668 33.2411 8.20904 33.2589 8.23159 33.2763L9.33812 31.8566L8.24769 33.2886L8.26228 33.3002C8.30529 33.3339 8.34887 33.3674 8.39245 33.3995C8.47222 33.4582 8.55559 33.5167 8.64711 33.5774C8.74753 33.6439 8.85458 33.7077 8.96978 33.7701C9.0054 33.7894 9.04102 33.8064 9.07948 33.8254C9.14997 33.8601 9.22026 33.8947 9.28791 33.9239C9.33433 33.9438 9.38018 33.963 9.43645 33.983C9.43759 33.9832 9.45351 33.9897 9.45483 33.99C9.50675 34.0094 9.55828 34.0293 9.61153 34.0471C9.66894 34.0662 9.72521 34.0848 9.78281 34.099C9.78452 34.0994 9.80763 34.106 9.80953 34.1064C9.85083 34.1172 9.89157 34.1291 9.92207 34.1367C9.99502 34.1545 10.0676 34.1697 10.1455 34.1846C10.175 34.1903 10.2048 34.196 10.2334 34.2007C10.3133 34.214 10.3929 34.2242 10.4803 34.2339L10.5257 34.2384C10.6135 34.2468 10.7002 34.2519 10.7868 34.2551C10.7954 34.2553 10.8043 34.2557 10.8094 34.2559C11.7297 34.2923 12.5433 34.0058 13.0474 33.7754C13.0785 33.7614 13.109 33.7464 13.1391 33.7305L13.5124 33.5338C13.5225 33.5287 13.5323 33.5232 13.5422 33.5177C13.5541 33.5118 13.566 33.5058 13.5778 33.4995L18.4455 30.9405L23.3031 33.4942C23.3105 33.498 23.3177 33.5018 23.3251 33.5054C23.3256 33.5056 23.326 33.5059 23.3266 33.5063L23.7917 33.7513C23.8277 33.7703 23.8645 33.7879 23.9018 33.8044C23.9535 33.8273 24.0083 33.8504 24.0538 33.869C24.0778 33.8788 24.1032 33.8887 24.1279 33.8982C24.1642 33.9124 24.2002 33.9264 24.2313 33.9379C24.2603 33.9487 24.2906 33.9578 24.3321 33.9738C24.3338 33.9743 24.3516 33.9806 24.3531 33.9811L24.4119 34.001C24.4545 34.0152 24.4981 34.0289 24.5385 34.041L24.6082 34.0617C24.6573 34.0759 24.7073 34.0897 24.7654 34.1045L24.8085 34.1153C24.867 34.1299 24.9259 34.1433 24.9892 34.1566C24.9979 34.1585 25.0042 34.1596 25.0129 34.1611C25.3291 34.2222 25.6448 34.2585 25.9529 34.2585C26.7837 34.2585 27.5515 34.0296 28.2355 33.5777C30.1855 32.2882 30.2714 30.8101 30.1808 29.0114C30.1772 28.9398 30.1692 28.8684 30.1573 28.7977L29.1861 23.1376L33.5288 18.9047C33.5716 18.8628 33.6124 18.8189 33.651 18.773C33.6809 18.7374 33.7139 18.6969 33.7482 18.6535L33.748 18.6533L33.7681 18.6279C33.7952 18.5932 33.823 18.5567 33.8585 18.5093L33.8812 18.4782C33.9093 18.4398 33.9381 18.399 33.9703 18.3526L33.9983 18.3119C34.0345 18.2586 34.0716 18.2033 34.1076 18.1444C34.1088 18.1425 34.1258 18.1148 34.1273 18.1127C34.1626 18.058 34.1955 18 34.2281 17.943C34.2427 17.9176 34.2569 17.8914 34.2711 17.8651L34.2833 17.8427C34.3028 17.8069 34.3219 17.7707 34.3413 17.7332C34.3611 17.6944 34.3805 17.6551 34.3994 17.6161C34.4163 17.5812 34.4326 17.546 34.451 17.5055C34.4714 17.4602 34.4917 17.4149 34.512 17.367C34.5226 17.3418 34.5324 17.3162 34.5404 17.2955C34.5904 17.168 34.6363 17.0392 34.6744 16.9183C34.6772 16.9092 34.6808 16.8986 34.6827 16.8919C34.6846 16.8859 34.6865 16.8798 34.6882 16.8739C34.7085 16.8059 34.7265 16.7364 34.7477 16.6507L34.763 16.5861C34.7799 16.5122 34.7947 16.4374 34.807 16.3673L34.8199 16.2871C34.9408 15.5184 34.8526 14.7698 34.5586 14.0623C33.6042 11.7676 31.977 11.5026 30.3888 11.2841Z" fill="#D4D4D4"/>
<path d="M30.2294 11.1245C30.2027 11.1194 30.1762 11.1149 30.1491 11.1111L24.9236 10.3517L22.5859 5.61482C22.5409 5.52369 22.4972 5.43596 22.4551 5.35221C22.4159 5.27434 22.3771 5.20082 22.3399 5.12636C22.3373 5.12125 22.3278 5.1023 22.3249 5.09737C22.2842 5.01988 22.245 4.94541 22.2086 4.87872C22.205 4.87209 22.1944 4.85219 22.1908 4.84575C22.1476 4.76826 22.1059 4.6936 22.0695 4.63127C22.0654 4.62388 22.0549 4.60588 22.0506 4.59849C22.0063 4.52232 21.9613 4.45013 21.9172 4.38116C21.9104 4.37055 21.9019 4.3571 21.8965 4.34857C21.8518 4.27941 21.8062 4.21348 21.7541 4.13939C21.7455 4.12746 21.7345 4.11173 21.727 4.10131C21.6703 4.02306 21.6125 3.94916 21.554 3.87773C21.5477 3.87034 21.5413 3.86219 21.5347 3.85424C21.4725 3.77864 21.4079 3.70796 21.3425 3.63975C21.3325 3.62933 21.3207 3.61682 21.3124 3.6083C21.244 3.53819 21.1707 3.47017 21.0939 3.40291C21.0841 3.39419 21.0733 3.38491 21.0649 3.37771C20.9833 3.30779 20.8956 3.24091 20.8184 3.18577C20.8116 3.18104 20.7965 3.17005 20.7898 3.1655C20.6987 3.10165 20.6015 3.04064 20.5015 2.98398C20.5011 2.98379 20.5009 2.9836 20.5005 2.98341C20.4965 2.98133 20.4927 2.97925 20.4889 2.97697C20.3902 2.92108 20.2849 2.86973 20.1773 2.8216C20.1733 2.8199 20.1693 2.818 20.1653 2.81649C19.7062 2.62133 19.1926 2.49836 18.588 2.45459C18.486 2.44701 18.3856 2.4436 18.2871 2.4436C15.6415 2.4436 14.3678 4.84442 14.2284 5.12447L11.6481 10.352L6.376 11.1183C6.35629 11.1211 6.33678 11.1243 6.31745 11.1278C4.90303 11.3813 3.29989 11.6685 2.37166 13.5498C2.35271 13.5877 2.33414 13.6258 2.31633 13.6637C2.29511 13.709 2.27427 13.7548 2.25854 13.7912C2.21932 13.8812 2.1801 13.9736 2.14145 14.0744C2.09787 14.1889 2.05903 14.3094 2.0253 14.4314C2.01204 14.479 1.99897 14.5263 1.984 14.5891C1.97036 14.6465 1.95918 14.7037 1.94951 14.7535C1.92526 14.8778 1.90707 15.0025 1.89457 15.1239C1.89381 15.1306 1.89324 15.137 1.89267 15.1436C1.72347 16.9166 2.76482 18.2622 3.2205 18.7586C3.24305 18.7829 3.26617 18.8067 3.28985 18.8299L7.54524 22.9784L6.56263 28.7062C6.55012 28.7778 6.54236 28.8504 6.53876 28.9231C6.4804 30.1215 6.40802 31.6133 7.79345 32.881L7.82055 32.9055C7.87966 32.9587 7.94086 33.0122 8.00585 33.0648C8.02707 33.0823 8.04943 33.1001 8.07179 33.1173L9.1785 31.6976L8.08789 33.1298L8.10267 33.1414C8.14568 33.1751 8.18926 33.2086 8.23284 33.2407C8.31261 33.2994 8.39617 33.3579 8.48749 33.4186C8.58791 33.4851 8.69459 33.5491 8.81017 33.6113C8.84579 33.6306 8.88141 33.6476 8.92006 33.6666C8.99073 33.7011 9.06084 33.7358 9.12867 33.7651C9.1749 33.785 9.22095 33.8036 9.27703 33.824C9.27817 33.8244 9.29408 33.8307 9.29541 33.8311C9.34732 33.8504 9.39905 33.8705 9.4521 33.8881C9.50951 33.9072 9.56579 33.926 9.62339 33.9398C9.62509 33.9402 9.6484 33.9468 9.6501 33.9472C9.69141 33.9572 9.73215 33.9701 9.76265 33.9775C9.8356 33.9951 9.90817 34.0105 9.98604 34.0255C10.0156 34.0311 10.0453 34.0368 10.074 34.0416C10.1539 34.0548 10.2335 34.0652 10.3208 34.0747L10.3665 34.0795C10.454 34.0876 10.5408 34.0925 10.6274 34.0959C10.6357 34.0963 10.6448 34.0965 10.65 34.0967C11.5704 34.1251 12.3838 33.8466 12.8882 33.6162C12.9191 33.602 12.9496 33.5872 12.9797 33.5713L13.353 33.3746C13.363 33.3693 13.3729 33.3638 13.3829 33.3585C13.3949 33.3524 13.4068 33.3466 13.4185 33.3403L18.2865 30.7813L23.144 33.335C23.1514 33.3388 23.1583 33.3434 23.1658 33.3464C23.1664 33.3466 23.167 33.347 23.1673 33.3471L23.6325 33.5919C23.6685 33.6111 23.7053 33.6287 23.7424 33.6452C23.7941 33.6681 23.8487 33.6912 23.8942 33.7096C23.9184 33.7195 23.9438 33.7293 23.9684 33.7388C24.0048 33.753 24.0408 33.7672 24.0721 33.7786C24.1011 33.7894 24.1312 33.799 24.1727 33.8142C24.1746 33.8148 24.1924 33.821 24.1939 33.8216L24.2525 33.8415C24.2953 33.8557 24.3389 33.8691 24.3792 33.8815L24.4488 33.9023C24.4978 33.9165 24.5477 33.93 24.606 33.9451L24.6488 33.9559C24.7076 33.9705 24.7665 33.984 24.8298 33.9972C24.8385 33.9991 24.8448 34.0003 24.8535 34.002C25.1693 34.0645 25.4854 34.0992 25.7935 34.0992C26.6241 34.0992 27.392 33.8703 28.076 33.4184C30.0261 32.1288 30.1119 30.6506 30.0214 28.8521C30.0178 28.7804 30.0098 28.709 29.9977 28.6383L29.0263 22.9778L33.3688 18.745C33.4116 18.7031 33.4524 18.6593 33.491 18.6133C33.5209 18.5777 33.5539 18.5371 33.5882 18.4937L33.6081 18.4683C33.6352 18.4337 33.6629 18.3971 33.6983 18.3497L33.721 18.3187C33.7491 18.28 33.7779 18.2395 33.8099 18.193L33.8379 18.1521C33.8741 18.0989 33.9099 18.043 33.9471 17.9848C33.9484 17.9827 33.9656 17.9552 33.967 17.9532C34.0013 17.8978 34.0352 17.8404 34.0678 17.7834C34.0824 17.758 34.0966 17.732 34.1108 17.7057L34.1229 17.6834C34.1426 17.6475 34.1616 17.6114 34.1809 17.5738C34.2008 17.535 34.2203 17.496 34.2392 17.4569C34.2561 17.4221 34.2724 17.3868 34.2908 17.3463C34.3112 17.301 34.3315 17.2557 34.3516 17.2078C34.3622 17.1826 34.3723 17.157 34.3802 17.1363C34.43 17.0088 34.4761 16.88 34.5142 16.7591C34.517 16.7498 34.5204 16.7394 34.5223 16.7328C34.5242 16.7267 34.5261 16.7208 34.5278 16.7146C34.5483 16.6467 34.5661 16.5772 34.5873 16.4916L34.6027 16.4271C34.6197 16.3531 34.6345 16.2782 34.6466 16.2083L34.6597 16.1282C34.7804 15.3593 34.6921 14.6107 34.3982 13.9033C33.4446 11.6081 31.8176 11.343 30.2294 11.1245Z" fill="#C5C5C5"/>
<path d="M30.0699 10.9651C30.0432 10.9599 30.0167 10.9556 29.9896 10.9516L24.7641 10.1922L22.4264 5.45536C22.3815 5.36422 22.3377 5.2765 22.2956 5.19275C22.2566 5.11469 22.2183 5.0406 22.1804 4.9669C22.178 4.96178 22.1683 4.94264 22.1655 4.93772C22.1249 4.86003 22.0855 4.78595 22.0493 4.71906C22.0457 4.71262 22.0351 4.69254 22.0315 4.68629C21.9889 4.60822 21.9462 4.53433 21.91 4.47161C21.9059 4.46422 21.8955 4.44622 21.8911 4.43902C21.8466 4.36304 21.8015 4.29104 21.7577 4.2217C21.7509 4.21109 21.7424 4.19763 21.7371 4.18911C21.6923 4.11995 21.6467 4.05401 21.5944 3.97993C21.5859 3.9678 21.5749 3.95226 21.5675 3.94184C21.5106 3.86378 21.4528 3.7897 21.3943 3.71826C21.3882 3.71069 21.3816 3.70273 21.375 3.69477C21.3124 3.61955 21.248 3.54869 21.1828 3.48029C21.173 3.46986 21.1611 3.45755 21.1527 3.44883C21.0843 3.37873 21.011 3.31071 20.9343 3.24344C20.9244 3.23473 20.9136 3.22525 20.9053 3.21824C20.8234 3.14852 20.7359 3.08144 20.6588 3.02631C20.6519 3.02138 20.6368 3.01058 20.63 3.00584C20.5388 2.94218 20.4418 2.88098 20.3416 2.82433C20.3412 2.82414 20.341 2.82395 20.3406 2.82376C20.3368 2.82149 20.3331 2.8194 20.3291 2.81732C20.2298 2.76237 20.1244 2.71102 20.0172 2.66195C20.0132 2.66024 20.0092 2.65835 20.0055 2.65664C19.5471 2.45978 19.0327 2.33852 18.4281 2.29475C18.3267 2.28698 18.2263 2.28357 18.1278 2.28357C15.482 2.28357 14.2085 4.68439 14.0689 4.96462L11.4886 10.1922L6.21632 10.9584C6.1968 10.9613 6.1771 10.9645 6.15777 10.9679C4.74335 11.2212 3.14021 11.5085 2.21217 13.3899C2.19341 13.4277 2.17465 13.4659 2.15703 13.5038C2.13581 13.5491 2.11497 13.595 2.09924 13.6311C2.06002 13.7211 2.0208 13.8138 1.98215 13.9144C1.93857 14.0289 1.89992 14.1494 1.866 14.2712C1.85274 14.3187 1.83966 14.3661 1.82488 14.429C1.81124 14.4864 1.80006 14.5435 1.7904 14.5935C1.76653 14.7178 1.74796 14.8425 1.73545 14.9639C1.7347 14.9705 1.73413 14.977 1.73337 14.9836C1.56417 16.7567 2.60552 18.1022 3.0612 18.5986C3.08356 18.623 3.10686 18.6467 3.13055 18.67L7.38594 22.8185L6.40314 28.5463C6.39082 28.618 6.38286 28.6905 6.37945 28.7633C6.32091 29.9617 6.24853 31.4534 7.63415 32.7212L7.66124 32.7458C7.72036 32.7991 7.78175 32.8525 7.84655 32.9052C7.86777 32.9224 7.89013 32.9402 7.91249 32.9575L9.0192 31.5379L7.92859 32.9702L7.94337 32.9817C7.98657 33.0154 8.02996 33.0492 8.07354 33.0812C8.15331 33.1399 8.23686 33.1985 8.32819 33.2589C8.42861 33.3254 8.53547 33.3893 8.65086 33.4516C8.68649 33.4709 8.72211 33.488 8.76057 33.5069C8.83124 33.5416 8.90154 33.5763 8.96918 33.6053C9.0156 33.6252 9.06183 33.643 9.11773 33.6642C9.11886 33.6646 9.13478 33.6708 9.13611 33.6712C9.18802 33.6905 9.23975 33.7106 9.2928 33.7282C9.35021 33.7472 9.40649 33.7665 9.46409 33.7802C9.46598 33.7805 9.4891 33.7872 9.4908 33.7876C9.53173 33.7987 9.57284 33.8103 9.60335 33.8179C9.6763 33.8357 9.74867 33.8508 9.82674 33.8658C9.85648 33.8715 9.88604 33.8772 9.91465 33.8819C9.9948 33.8952 10.0742 33.9058 10.1615 33.9151L10.207 33.9198C10.2947 33.9281 10.3815 33.9333 10.4681 33.9363C10.4764 33.9365 10.4855 33.9369 10.4907 33.937C11.4111 33.9653 12.2243 33.6869 12.7287 33.4565C12.7596 33.4423 12.7901 33.4275 12.8202 33.4116L13.1935 33.215C13.2035 33.2098 13.2136 33.2043 13.2234 33.1989C13.2354 33.1928 13.2471 33.1867 13.2591 33.1805L18.127 30.6216L22.9845 33.1754C22.9919 33.1792 22.9991 33.1829 23.0065 33.1867C23.0069 33.1869 23.0075 33.1871 23.008 33.1875L23.4732 33.4323C23.5092 33.4512 23.546 33.469 23.5831 33.4855C23.6348 33.5085 23.6894 33.5316 23.7349 33.5501C23.7591 33.56 23.7843 33.5698 23.8091 33.5793C23.8455 33.5935 23.8815 33.6076 23.9126 33.6193C23.9416 33.6301 23.9717 33.6396 24.0134 33.6549C24.0151 33.6557 24.0329 33.6617 24.0346 33.6623L24.0932 33.6822C24.1358 33.6964 24.1796 33.7099 24.2199 33.7222L24.2895 33.7428C24.3385 33.757 24.3884 33.7707 24.4467 33.7858L24.4895 33.7966C24.5481 33.8112 24.6072 33.8247 24.6705 33.8379C24.6792 33.8398 24.6855 33.841 24.6942 33.8427C25.0102 33.9054 25.3261 33.9401 25.6341 33.9401H25.6343C26.465 33.9401 27.2327 33.7112 27.9167 33.2591C29.8668 31.9697 29.9524 30.4915 29.8621 28.6928C29.8585 28.6212 29.8505 28.5497 29.8384 28.4791L28.8671 22.8189L33.2097 18.5861C33.2527 18.5442 33.2934 18.5002 33.3319 18.4544C33.3618 18.4188 33.3946 18.378 33.4291 18.3348L33.449 18.3093C33.4761 18.2746 33.5039 18.2382 33.5394 18.1906L33.5621 18.1596C33.5903 18.1209 33.6189 18.0804 33.651 18.0339L33.679 17.993C33.7152 17.9398 33.752 17.8845 33.7883 17.8255C33.7895 17.8236 33.8067 17.796 33.808 17.7939C33.8423 17.7387 33.8763 17.6811 33.9087 17.6241C33.9232 17.5987 33.9375 17.5726 33.9519 17.5462L33.964 17.5241C33.9833 17.4883 34.0026 17.4521 34.022 17.4146C34.042 17.3757 34.0614 17.3365 34.0801 17.2977C34.097 17.2628 34.1133 17.2275 34.1319 17.187C34.1523 17.1415 34.1728 17.0962 34.1929 17.0485C34.2035 17.0233 34.2133 16.9977 34.2215 16.9771C34.2715 16.8497 34.3177 16.7207 34.3554 16.5998C34.3585 16.5907 34.3617 16.5801 34.3636 16.5737C34.3655 16.5676 34.3674 16.5615 34.3691 16.5555C34.3893 16.4875 34.4073 16.4179 34.4286 16.3325L34.4439 16.2679C34.461 16.1938 34.4757 16.1189 34.4879 16.049L34.5009 15.9691C34.6216 15.2002 34.5335 14.4516 34.2395 13.7441C33.2851 11.4486 31.6581 11.1835 30.0699 10.9651Z" fill="#B7B7B7"/>
<path d="M29.9103 10.8055C29.8838 10.8004 29.8569 10.7958 29.83 10.7921L24.6047 10.0325L22.267 5.29561C22.2221 5.20466 22.1785 5.11675 22.1362 5.03319C22.0972 4.95513 22.0582 4.88161 22.021 4.80734C22.0186 4.80222 22.0087 4.78327 22.0061 4.77816C21.9655 4.70047 21.9257 4.62639 21.8899 4.5597C21.8863 4.55306 21.8757 4.53317 21.8721 4.52692C21.8291 4.44885 21.7868 4.37477 21.7508 4.31224C21.7467 4.30485 21.7361 4.28685 21.7319 4.27965C21.6868 4.20424 21.6423 4.13148 21.5985 4.06214C21.5917 4.05134 21.5832 4.03788 21.5779 4.02974C21.5331 3.96039 21.4875 3.89483 21.4354 3.82056C21.4268 3.80862 21.4159 3.7929 21.4083 3.78247C21.3516 3.70422 21.2933 3.63071 21.2351 3.55889C21.229 3.55132 21.2224 3.54336 21.2158 3.53521C21.1536 3.4598 21.0892 3.38875 21.0236 3.32073C21.0136 3.31031 21.0019 3.29799 20.9935 3.28946C20.9249 3.21955 20.8518 3.15134 20.7751 3.08388C20.7652 3.07517 20.7546 3.06588 20.7461 3.05868C20.6644 2.98896 20.5765 2.92207 20.4997 2.86675C20.4929 2.86201 20.4778 2.85121 20.4711 2.84647C20.3802 2.78243 20.2828 2.72161 20.1828 2.66496C20.1824 2.66477 20.1824 2.66458 20.182 2.66458C20.178 2.6625 20.1742 2.66022 20.1703 2.65795C20.071 2.603 19.966 2.55071 19.8584 2.50258C19.8544 2.50087 19.8506 2.49898 19.8464 2.49727C19.3894 2.29757 18.8737 2.17915 18.2691 2.13538C18.1671 2.12799 18.0669 2.12439 17.9682 2.12439C15.3226 2.12439 14.0489 4.52521 13.9095 4.80544L11.329 10.0325L6.05673 10.7987C6.03703 10.8015 6.01751 10.8046 5.998 10.8082C4.58377 11.0615 2.98063 11.3489 2.0524 13.2304C2.03364 13.2681 2.01488 13.3062 1.99726 13.3443C1.97623 13.3895 1.9552 13.4354 1.93947 13.4718C1.90063 13.5618 1.86103 13.6542 1.82238 13.755C1.7788 13.8695 1.74015 13.99 1.70623 14.1118C1.69297 14.1594 1.68008 14.2067 1.66492 14.2695C1.65109 14.3271 1.6401 14.3841 1.63063 14.4339C1.60676 14.5582 1.58838 14.6829 1.57568 14.8045C1.57511 14.811 1.57436 14.8176 1.57379 14.8242C1.40478 16.5971 2.44593 17.9428 2.90162 18.439C2.92398 18.4635 2.94728 18.4873 2.97097 18.5106L7.22654 22.6592L6.24374 28.3868C6.23143 28.4586 6.22347 28.531 6.22006 28.6039C6.1617 29.8023 6.08913 31.2939 7.47476 32.5618L7.50185 32.5863C7.56097 32.6397 7.62236 32.6929 7.68735 32.7458C7.70857 32.7632 7.73092 32.7809 7.75328 32.7981L8.86 31.3786L7.76939 32.8108L7.78417 32.8222C7.82737 32.8559 7.87057 32.8898 7.91433 32.9216C7.9941 32.9802 8.07766 33.0389 8.16918 33.0994C8.26941 33.1659 8.37646 33.2297 8.49166 33.2922C8.52728 33.3114 8.5629 33.3286 8.60137 33.3472C8.67204 33.3819 8.74234 33.4165 8.80998 33.4457C8.85621 33.4656 8.90301 33.4825 8.95833 33.5046C8.95947 33.5052 8.97539 33.5113 8.97652 33.5117C9.02901 33.5293 9.08017 33.5511 9.13341 33.5687C9.19063 33.5876 9.24709 33.6068 9.30488 33.6206C9.30659 33.621 9.32989 33.6276 9.3316 33.628C9.37271 33.6394 9.41364 33.6507 9.44415 33.6581C9.51728 33.6759 9.58966 33.6911 9.66753 33.7061C9.69728 33.7117 9.72684 33.7174 9.75545 33.7222C9.8356 33.7354 9.91499 33.746 10.0025 33.7553L10.0478 33.7601C10.1355 33.7684 10.2223 33.7735 10.3089 33.7765C10.3172 33.7767 10.3263 33.7773 10.3315 33.7773C11.2521 33.7976 12.0651 33.5272 12.5693 33.2968C12.6004 33.2826 12.6309 33.2676 12.6608 33.2519L13.0341 33.055C13.0441 33.0499 13.054 33.0444 13.064 33.0389C13.076 33.033 13.0879 33.027 13.0997 33.0207L17.9674 30.4619L22.8252 33.0156C22.8324 33.0194 22.8396 33.0238 22.8469 33.027C22.8473 33.027 22.8479 33.0274 22.8485 33.0275L23.3136 33.2723C23.3496 33.2913 23.3862 33.3091 23.4235 33.3254C23.4752 33.3483 23.5298 33.3716 23.5753 33.39C23.5995 33.3999 23.6247 33.4097 23.6496 33.4192C23.6859 33.4332 23.7219 33.4474 23.753 33.459C23.782 33.4698 23.8121 33.4793 23.8538 33.4948C23.8555 33.4956 23.8733 33.5016 23.875 33.5022L23.9336 33.5221C23.9762 33.5363 24.02 33.5497 24.0601 33.5621L24.1299 33.5827C24.1789 33.5971 24.2288 33.6106 24.2871 33.6257L24.3301 33.6363C24.3887 33.6507 24.4476 33.6646 24.5111 33.6776C24.5198 33.6793 24.5261 33.6807 24.5348 33.6824C24.8503 33.7462 25.1665 33.7796 25.4748 33.7796C26.3054 33.7796 27.0732 33.5507 27.7572 33.0988C29.7072 31.8092 29.7931 30.331 29.7027 28.5325C29.6989 28.4609 29.6911 28.3894 29.679 28.3186L28.7077 22.6584L33.0503 18.4256C33.0931 18.3837 33.1339 18.3397 33.1725 18.2939C33.2022 18.2583 33.2352 18.2175 33.2695 18.1743L33.2894 18.1487C33.3165 18.1141 33.3444 18.0777 33.3798 18.0301L33.4025 17.9989C33.4306 17.9604 33.4594 17.9199 33.4916 17.8734L33.5196 17.8325C33.5558 17.7793 33.5924 17.7239 33.6289 17.665C33.6301 17.6629 33.6473 17.6355 33.6487 17.6332C33.6829 17.5781 33.7169 17.5205 33.7495 17.4636C33.764 17.438 33.7783 17.4121 33.7925 17.3857L33.8046 17.3636C33.8239 17.3276 33.8432 17.2916 33.8624 17.2539C33.8825 17.215 33.9018 17.1758 33.9205 17.137C33.9374 17.1019 33.9537 17.0669 33.9721 17.0263C33.9927 16.9808 34.013 16.9355 34.0331 16.8878C34.0437 16.8628 34.0536 16.8368 34.0617 16.8162C34.1115 16.6889 34.1572 16.5598 34.1957 16.4389C34.1985 16.4298 34.2019 16.4192 34.2038 16.4126C34.2057 16.4067 34.2074 16.4005 34.2093 16.3946C34.2294 16.3266 34.2476 16.257 34.2688 16.1716L34.2841 16.107C34.3012 16.0329 34.316 15.9581 34.3283 15.8881L34.3412 15.808C34.4619 15.0391 34.3738 14.2905 34.0797 13.5832C33.1253 11.2892 31.4983 11.024 29.9103 10.8055Z" fill="#A8A8A8"/>
<path d="M29.7508 10.6459C29.7243 10.6408 29.6976 10.6362 29.6705 10.6323L24.445 9.87285L22.1073 5.13601C22.0625 5.04506 22.0186 4.95715 21.9767 4.8734C21.9377 4.79553 21.8992 4.72163 21.8615 4.64755C21.8591 4.64243 21.8492 4.62348 21.8465 4.61837C21.8068 4.54031 21.766 4.46679 21.7302 4.3999C21.7266 4.39346 21.716 4.37338 21.7126 4.36713C21.6703 4.28887 21.6271 4.21498 21.5911 4.15245C21.587 4.14506 21.5765 4.12706 21.5722 4.11967C21.5277 4.04388 21.483 3.9715 21.4386 3.90216C21.432 3.89155 21.4235 3.87809 21.418 3.86976C21.3732 3.80041 21.3276 3.73466 21.2755 3.66058C21.267 3.64864 21.256 3.63273 21.2486 3.62231C21.1919 3.54424 21.1341 3.47016 21.0754 3.39892C21.0691 3.39134 21.0627 3.38338 21.0561 3.37542C20.9935 3.3002 20.9291 3.22915 20.8639 3.16094C20.8541 3.15052 20.8423 3.1382 20.8338 3.12967C20.7652 3.05976 20.6921 2.99174 20.6154 2.92409C20.6055 2.91557 20.5947 2.9059 20.5864 2.8987C20.5049 2.82879 20.4168 2.76228 20.3399 2.70677C20.333 2.70203 20.3179 2.69104 20.3112 2.68649C20.2203 2.62245 20.1231 2.56163 20.0229 2.50498C20.0225 2.50479 20.0223 2.5046 20.0219 2.50441C20.0181 2.50233 20.0143 2.50024 20.0104 2.49797C19.9116 2.44207 19.8063 2.39073 19.6985 2.3426C19.6947 2.3407 19.6907 2.339 19.6867 2.33748C19.2286 2.14062 18.714 2.01936 18.1094 1.9754C18.0076 1.9682 17.9072 1.9646 17.8085 1.9646C15.1629 1.9646 13.8892 4.36523 13.7496 4.64546L11.1693 9.87304L5.89722 10.6393C5.87752 10.6419 5.85819 10.6451 5.83849 10.6486C4.4235 10.899 2.82093 11.1893 1.89289 13.0708C1.87394 13.1087 1.85537 13.1468 1.83756 13.1847C1.81634 13.2299 1.7955 13.2758 1.77977 13.312C1.74055 13.402 1.70133 13.4946 1.66286 13.5953C1.61929 13.7097 1.58006 13.83 1.54653 13.9522C1.53326 13.9998 1.52038 14.0471 1.50541 14.1099C1.49177 14.1675 1.48078 14.2245 1.47112 14.2745C1.44724 14.3986 1.42886 14.5233 1.41617 14.6449C1.4156 14.6514 1.41484 14.658 1.41428 14.6646C1.25758 16.4387 2.28642 17.7832 2.74211 18.2794C2.76446 18.3039 2.78777 18.3277 2.81145 18.3509L7.06665 22.4994L6.08385 28.2272C6.07173 28.299 6.06358 28.3714 6.06017 28.4441C6.00181 29.6425 5.92924 31.1343 7.31486 32.402L7.34196 32.4267C7.40108 32.4799 7.46228 32.5331 7.52727 32.586C7.54849 32.6033 7.57084 32.6209 7.59339 32.6383L8.69992 31.2188L7.6095 32.651L7.62409 32.6626C7.6671 32.6963 7.71049 32.7298 7.75425 32.7618C7.83402 32.8204 7.91758 32.8791 8.00891 32.9396C8.10933 33.0061 8.21638 33.0699 8.33158 33.1325C8.3672 33.1516 8.40282 33.1688 8.44129 33.1876C8.51177 33.2223 8.58207 33.2569 8.6499 33.2861C8.69632 33.306 8.74179 33.3259 8.79825 33.345C8.79939 33.3454 8.8155 33.3517 8.81663 33.3521C8.86798 33.3731 8.92009 33.3915 8.97333 33.4091C9.03074 33.4282 9.08701 33.4472 9.14461 33.461C9.14651 33.4614 9.16962 33.468 9.17133 33.4684C9.21244 33.4794 9.25337 33.4913 9.28406 33.4987C9.35701 33.5165 9.42939 33.5319 9.50727 33.5468C9.53701 33.5525 9.56657 33.5582 9.59537 33.5629C9.67533 33.5762 9.75472 33.5866 9.84225 33.5961L9.88773 33.6006C9.97527 33.609 10.0622 33.6135 10.1488 33.6173C10.157 33.6177 10.1663 33.6179 10.1714 33.6181C11.092 33.6465 11.9051 33.368 12.4096 33.1378C12.4405 33.1235 12.471 33.1088 12.5011 33.0927L12.8744 32.896C12.8844 32.8907 12.8943 32.8852 12.9043 32.8799C12.9163 32.874 12.928 32.8679 12.94 32.8617L17.8079 30.3027L22.6655 32.8564C22.6727 32.86 22.6797 32.8647 22.6872 32.8676C22.6878 32.8678 22.6882 32.8681 22.6888 32.8683L23.1539 33.1131C23.1899 33.1321 23.2267 33.1497 23.2638 33.1662C23.3157 33.1891 23.3703 33.2122 23.4158 33.2308C23.4398 33.2406 23.4654 33.2505 23.49 33.26C23.5264 33.2742 23.5622 33.2884 23.5935 33.2998C23.6225 33.3106 23.6526 33.32 23.6941 33.3354C23.696 33.3361 23.7136 33.3422 23.7153 33.3428L23.7739 33.3627C23.8165 33.3769 23.8603 33.3903 23.9006 33.4026L23.9702 33.4233C24.0192 33.4375 24.0693 33.4511 24.1274 33.4663L24.1704 33.4769C24.229 33.4915 24.2879 33.505 24.3514 33.5182C24.3599 33.5201 24.3664 33.5213 24.3749 33.523C24.6909 33.5859 25.0068 33.6202 25.3151 33.6202C26.1457 33.6202 26.9135 33.3913 27.5975 32.9394C29.5477 31.6498 29.6334 30.1717 29.5428 28.3731C29.5392 28.3014 29.5312 28.23 29.5191 28.1593L28.548 22.4992L32.8906 18.2663C32.9336 18.2245 32.9741 18.1803 33.0128 18.1347C33.0427 18.099 33.0757 18.0585 33.1098 18.0151L33.1299 17.9897C33.157 17.955 33.1848 17.9185 33.2201 17.8711L33.243 17.84C33.2711 17.8016 33.2999 17.7608 33.3319 17.7144L33.3599 17.6737C33.3959 17.6202 33.4323 17.5645 33.4692 17.5062C33.4704 17.5043 33.4876 17.4766 33.4889 17.4745C33.5229 17.4192 33.5572 17.3616 33.5898 17.3048C33.6042 17.2794 33.6184 17.2532 33.6329 17.2271L33.6449 17.2047C33.6642 17.1689 33.6835 17.1327 33.7029 17.0952C33.7228 17.0564 33.7423 17.017 33.761 16.9783C33.7779 16.9434 33.7944 16.9082 33.8128 16.8677C33.8332 16.8226 33.8535 16.7769 33.8738 16.7291C33.8844 16.7039 33.8942 16.6782 33.9022 16.6577C33.9524 16.5302 33.9981 16.4014 34.0361 16.2805C34.0392 16.2714 34.0424 16.2608 34.0445 16.2541C34.0464 16.2483 34.0483 16.2422 34.05 16.2361C34.0704 16.1681 34.0881 16.0986 34.1093 16.0129L34.1248 15.9485C34.1417 15.8744 34.1567 15.7998 34.1688 15.7297L34.1817 15.6495C34.3024 14.8808 34.2143 14.1322 33.9204 13.4247C32.966 11.1294 31.339 10.8642 29.7508 10.6459Z" fill="#9A9A9A"/>
<path d="M29.5913 10.4864C29.5646 10.4811 29.5379 10.4768 29.5108 10.4728L24.2855 9.71339L21.9478 4.97654C21.9029 4.88541 21.8591 4.79768 21.817 4.71393C21.7782 4.63606 21.7395 4.56235 21.702 4.48808C21.6994 4.48297 21.6897 4.46383 21.6871 4.4589C21.6461 4.38141 21.6063 4.30732 21.5707 4.24044C21.5671 4.23381 21.5567 4.21391 21.5531 4.20766C21.5105 4.12941 21.4673 4.0557 21.4315 3.99299C21.4275 3.98579 21.4171 3.9676 21.4127 3.96021C21.368 3.88423 21.3231 3.81223 21.2793 3.74288C21.2725 3.73208 21.2641 3.71863 21.2587 3.7101C21.2143 3.64075 21.1681 3.5752 21.116 3.50092C21.1076 3.48899 21.0967 3.47326 21.0891 3.46284C21.0324 3.38459 20.9744 3.31088 20.9159 3.23926C20.9096 3.23168 20.9032 3.22372 20.8966 3.21577C20.8339 3.14073 20.7692 3.06968 20.7044 3.00128C20.6946 2.99086 20.6828 2.97835 20.6743 2.97002C20.6057 2.9001 20.533 2.83151 20.4559 2.76444C20.4458 2.75572 20.4352 2.74644 20.4269 2.73924C20.345 2.66932 20.2571 2.60263 20.1804 2.54711C20.1735 2.54219 20.1584 2.53158 20.1518 2.52665C20.061 2.46242 19.9636 2.40198 19.8634 2.34513C19.8632 2.34494 19.8628 2.34475 19.8624 2.34457C19.8586 2.34229 19.8548 2.34021 19.8509 2.33812C19.7514 2.28318 19.6466 2.23088 19.539 2.18257C19.535 2.18086 19.531 2.17897 19.5272 2.17745C19.0699 1.97869 18.5545 1.85932 17.9497 1.81555C17.8479 1.80817 17.7475 1.80457 17.649 1.80457C15.0032 1.80457 13.7297 4.20539 13.5901 4.48562L11.0096 9.7132L5.73773 10.4796C5.71802 10.4825 5.69851 10.4857 5.67899 10.4891C4.26457 10.7424 2.66143 11.0298 1.73339 12.9111C1.71444 12.949 1.69588 12.9871 1.67807 13.025C1.65684 13.0703 1.636 13.1161 1.62009 13.1525C1.58087 13.2423 1.54183 13.335 1.50318 13.4358C1.4596 13.5502 1.42076 13.6705 1.38703 13.7926C1.37377 13.8401 1.3607 13.8877 1.34573 13.9502C1.33209 14.0076 1.32091 14.0648 1.31124 14.1147C1.28737 14.2392 1.2688 14.3634 1.2563 14.4853C1.25554 14.4917 1.25497 14.4984 1.2544 14.505C1.09884 16.279 2.12655 17.6235 2.58223 18.12C2.60478 18.1444 2.6279 18.1683 2.65158 18.1914L6.90697 22.3397L5.92417 28.0677C5.91185 28.1393 5.9039 28.2119 5.90049 28.2845C5.84213 29.4831 5.76956 30.9746 7.15518 32.2424L7.18228 32.267C7.24139 32.3202 7.30278 32.3735 7.36758 32.4264C7.3888 32.4436 7.41097 32.4614 7.43371 32.4786L8.54023 31.0591L7.44962 32.4913L7.4644 32.5029C7.50741 32.5366 7.5508 32.5702 7.59457 32.6022C7.67415 32.6609 7.7579 32.7195 7.84922 32.7799C7.94964 32.8464 8.05651 32.9105 8.1719 32.9726C8.20752 32.9917 8.24314 33.009 8.2816 33.0279C8.35228 33.0626 8.42257 33.0973 8.49021 33.1265C8.53645 33.1464 8.58287 33.1642 8.63857 33.1854C8.63971 33.1858 8.65562 33.192 8.65676 33.1924C8.70849 33.2125 8.7604 33.2318 8.81364 33.2496C8.87105 33.2686 8.9279 33.2852 8.98493 33.3013C8.98682 33.3017 9.00994 33.3084 9.01164 33.3089C9.05276 33.3201 9.09369 33.3317 9.12438 33.3392C9.19733 33.357 9.26971 33.3722 9.34777 33.3872C9.37733 33.3929 9.40708 33.3984 9.43569 33.4031C9.51564 33.4164 9.59522 33.427 9.68257 33.4362L9.72804 33.4408C9.81577 33.4491 9.90255 33.4542 9.98914 33.4575C9.99748 33.4578 10.0066 33.458 10.0117 33.4582C10.9323 33.4787 11.7456 33.2081 12.2498 32.9779C12.2806 32.9639 12.3111 32.9489 12.3413 32.933L12.7145 32.7363C12.7246 32.731 12.7344 32.7257 12.7445 32.7202C12.7564 32.7144 12.7681 32.7081 12.7801 32.7018L17.648 30.143L22.5056 32.6967C22.5128 32.7005 22.5202 32.7043 22.5276 32.7081C22.5281 32.7085 22.5285 32.7085 22.5291 32.7089L22.9942 32.9537C23.0302 32.9726 23.067 32.9904 23.1043 33.0069C23.156 33.0298 23.2108 33.0528 23.2561 33.0713C23.2803 33.0814 23.3057 33.091 23.3304 33.1007C23.3667 33.1147 23.4027 33.1289 23.434 33.1405C23.463 33.1513 23.4927 33.1617 23.5346 33.1763C23.5363 33.1769 23.5541 33.1831 23.5558 33.1835L23.6146 33.2036C23.657 33.2178 23.701 33.2312 23.7413 33.2436L23.8109 33.2644C23.8599 33.2786 23.91 33.2922 23.9681 33.3072L24.011 33.318C24.0695 33.3326 24.1286 33.3461 24.1919 33.3593C24.2006 33.3612 24.2069 33.3624 24.2156 33.3641C24.5316 33.4266 24.8473 33.4613 25.1556 33.4613H25.1558C25.9864 33.4613 26.7543 33.2322 27.4381 32.7805C29.3882 31.4909 29.4739 30.0126 29.3833 28.2142C29.3797 28.1424 29.3719 28.0711 29.3596 28.0002L28.3885 22.3401L32.7311 18.1073C32.7739 18.0654 32.8147 18.0214 32.8533 17.9756C32.8831 17.94 32.9162 17.8994 32.9505 17.8558L32.9704 17.8304C32.9975 17.7958 33.0254 17.759 33.0606 17.7116L33.0833 17.6806C33.1114 17.6421 33.1402 17.6014 33.1722 17.5549L33.2002 17.514C33.2364 17.4608 33.2732 17.4053 33.3096 17.3467C33.3107 17.3446 33.3279 17.3172 33.3293 17.3151C33.3636 17.2597 33.3975 17.2021 33.4301 17.1453C33.4447 17.1199 33.4589 17.0938 33.4731 17.0676L33.4852 17.0453C33.5045 17.0094 33.5239 16.9733 33.5432 16.9357C33.5631 16.8971 33.5826 16.8577 33.6015 16.8188C33.6182 16.784 33.6347 16.7487 33.6531 16.708C33.6737 16.6627 33.694 16.6174 33.7143 16.5695C33.7247 16.5443 33.7347 16.5187 33.7427 16.4979C33.7927 16.3705 33.8388 16.2415 33.8767 16.1206C33.8795 16.1113 33.8827 16.1009 33.8848 16.0945C33.8867 16.0884 33.8886 16.0824 33.8905 16.0763C33.9108 16.0083 33.9288 15.9387 33.9498 15.8531L33.9653 15.7887C33.9824 15.7146 33.9972 15.6399 34.0093 15.5698L34.0224 15.4897C34.1431 14.7208 34.055 13.9722 33.7609 13.2649C32.8065 10.97 31.1795 10.7049 29.5913 10.4864Z" fill="#8B8B8B"/>
<path d="M29.4317 10.3268C29.4052 10.3219 29.3785 10.3173 29.3514 10.3134L24.1261 9.55395L21.7884 4.8173C21.7433 4.72616 21.6997 4.63843 21.6576 4.55469C21.6186 4.47681 21.5801 4.40292 21.5426 4.32883C21.5402 4.32372 21.5303 4.30477 21.5277 4.29966C21.4875 4.22197 21.4477 4.14789 21.4115 4.08119C21.4081 4.07475 21.3973 4.05467 21.3939 4.04822C21.3516 3.97016 21.3088 3.89608 21.2724 3.83355C21.2683 3.82635 21.2578 3.80816 21.2535 3.80096C21.2086 3.72517 21.1637 3.65298 21.1201 3.58363C21.1133 3.57283 21.1048 3.55938 21.0994 3.55086C21.0549 3.48151 21.0089 3.41595 20.957 3.34168C20.9484 3.32955 20.9374 3.31401 20.9299 3.30359C20.8726 3.22572 20.8152 3.15163 20.7569 3.08001C20.7508 3.07243 20.7442 3.06448 20.7376 3.05652C20.6748 2.98168 20.6108 2.91043 20.5456 2.84203C20.5356 2.83142 20.5238 2.8193 20.5153 2.81058C20.4467 2.74067 20.3738 2.67264 20.2968 2.60519C20.287 2.59648 20.2764 2.587 20.2678 2.57999C20.1858 2.51046 20.0983 2.44338 20.0215 2.38787C20.0147 2.38294 19.9996 2.37214 19.9927 2.3674C19.9018 2.30374 19.8046 2.24254 19.7045 2.18608C19.7042 2.1857 19.704 2.1857 19.7036 2.18551C19.6998 2.18323 19.6958 2.18115 19.692 2.17888C19.5931 2.12298 19.4872 2.07258 19.3802 2.02351C19.3762 2.0218 19.3724 2.01991 19.3682 2.01839C18.9093 1.82323 18.3955 1.70027 17.7909 1.65631C17.6889 1.64892 17.5887 1.64551 17.4902 1.64551C14.8444 1.64551 13.5709 4.04614 13.4313 4.32656L10.8504 9.55376L5.57814 10.32C5.55844 10.3228 5.53911 10.3261 5.5196 10.3297C4.10593 10.5873 2.50204 10.8702 1.57381 12.7517C1.55505 12.7894 1.53629 12.8277 1.51848 12.8656C1.49726 12.9107 1.47642 12.9565 1.46069 12.9929C1.42147 13.0827 1.38225 13.1754 1.3436 13.2762C1.30002 13.3906 1.26136 13.5111 1.22745 13.6331C1.21437 13.6807 1.2013 13.7281 1.18633 13.791C1.1725 13.8484 1.16151 13.9054 1.15185 13.9552C1.12797 14.0795 1.10941 14.2042 1.09671 14.3258C1.09614 14.3325 1.09538 14.3389 1.09482 14.3456C0.925617 16.1185 1.96715 17.4641 2.42265 17.9605C2.4452 17.985 2.46831 18.0086 2.492 18.0319L6.74738 22.1805L5.76458 27.9083C5.75227 27.9799 5.74431 28.0523 5.74071 28.1252C5.68254 29.3236 5.60978 30.8154 6.99541 32.0831L7.0225 32.1076C7.08162 32.161 7.14301 32.2142 7.208 32.2671C7.22922 32.2843 7.25157 32.302 7.27393 32.3194L8.38046 30.8999L7.28985 32.3321L7.30463 32.3437C7.34764 32.3776 7.39103 32.4111 7.43479 32.4431C7.51456 32.5019 7.59793 32.5602 7.68945 32.6209C7.78987 32.6874 7.89673 32.7512 8.01212 32.8136C8.04774 32.8327 8.08336 32.8499 8.12183 32.8689C8.19231 32.9035 8.26261 32.9382 8.33025 32.9672C8.37667 32.9871 8.42347 33.004 8.4788 33.0261C8.47993 33.0267 8.49585 33.0328 8.49698 33.0333C8.5489 33.0527 8.60063 33.0729 8.65387 33.0904C8.71109 33.1095 8.76793 33.1269 8.82515 33.1421C8.82686 33.1427 8.85016 33.1491 8.85187 33.1495C8.89336 33.1597 8.93391 33.1724 8.96442 33.1798C9.03736 33.1976 9.10993 33.2126 9.18781 33.2277C9.21755 33.2334 9.24711 33.2391 9.27572 33.2438C9.35587 33.2571 9.43526 33.2677 9.52261 33.277L9.56808 33.2817C9.65581 33.2901 9.74258 33.295 9.82917 33.2982C9.83732 33.2986 9.84661 33.299 9.85172 33.299C10.7718 33.3354 11.5854 33.0487 12.0898 32.8185C12.1207 32.8043 12.1514 32.7895 12.1815 32.7736L12.5546 32.5769C12.5646 32.5716 12.5745 32.5663 12.5845 32.5608C12.5964 32.5547 12.6082 32.5489 12.6201 32.5426L17.4881 29.9836L22.3456 32.5375C22.353 32.5413 22.3608 32.5443 22.3676 32.5487C22.368 32.549 22.3685 32.549 22.3689 32.5494L22.8341 32.7942C22.8703 32.8134 22.9068 32.831 22.9442 32.8475C22.9959 32.8704 23.0505 32.8935 23.0959 32.9119C23.1202 32.9217 23.1454 32.9316 23.17 32.9411C23.2066 32.9551 23.2424 32.9695 23.2735 32.981C23.3025 32.9918 23.3322 33.0028 23.3743 33.0169C23.376 33.0174 23.3938 33.0237 23.3955 33.0242L23.454 33.0441C23.4967 33.0585 23.5402 33.072 23.5808 33.0843L23.6503 33.105C23.6994 33.1192 23.7492 33.1328 23.8074 33.148L23.8504 33.1588C23.909 33.1734 23.9681 33.1862 24.0312 33.1999C24.0399 33.2018 24.0461 33.2031 24.0549 33.2048C24.3705 33.2692 24.6866 33.3018 24.9948 33.3018C25.8255 33.3018 26.5934 33.0731 27.2772 32.6212C29.2275 31.3315 29.3131 29.8534 29.2228 28.0549C29.219 27.9831 29.2112 27.9119 29.1991 27.841L28.2278 22.1809L32.5704 17.9482C32.6134 17.9063 32.6541 17.8624 32.6928 17.8165C32.7227 17.7809 32.7557 17.7402 32.79 17.697L32.8099 17.6714C32.837 17.6369 32.8648 17.6003 32.9002 17.553L32.923 17.5219C32.951 17.4834 32.9796 17.4427 33.0118 17.3963L33.0399 17.3553C33.0761 17.3023 33.1138 17.2473 33.1492 17.188C33.1503 17.1861 33.1676 17.1583 33.1689 17.1564C33.2032 17.1013 33.2371 17.0437 33.2695 16.9866C33.2839 16.9612 33.2983 16.9353 33.3125 16.9088L33.3247 16.8866C33.344 16.8508 33.3635 16.8146 33.3826 16.7771C33.4025 16.7382 33.4219 16.699 33.4408 16.6602C33.4577 16.6253 33.4742 16.5901 33.4925 16.5495C33.5132 16.5042 33.5335 16.4588 33.5536 16.411C33.5642 16.3858 33.574 16.3602 33.5822 16.3394C33.6324 16.2122 33.678 16.083 33.7161 15.9623C33.719 15.953 33.7224 15.9426 33.7245 15.9362C33.7264 15.9299 33.7282 15.9241 33.7299 15.918C33.7498 15.85 33.7682 15.7804 33.7894 15.695L33.8048 15.6304C33.8217 15.5563 33.8368 15.4814 33.8488 15.4115L33.8618 15.3314C33.9823 14.5625 33.8942 13.8139 33.6004 13.1064C32.6467 10.8104 31.0199 10.5453 29.4317 10.3268Z" fill="#7D7D7D"/>
<path d="M29.2721 10.1673C29.2456 10.1624 29.2188 10.1577 29.1917 10.1539L23.9663 9.39447L21.6285 4.65744C21.5838 4.56649 21.54 4.47858 21.498 4.39483C21.4589 4.31696 21.4201 4.24306 21.3828 4.16898C21.3801 4.16386 21.3705 4.14491 21.368 4.13999C21.328 4.06192 21.2873 3.98822 21.2517 3.92133C21.2483 3.91489 21.2376 3.89481 21.234 3.88856C21.1908 3.81087 21.1488 3.73641 21.1126 3.67388C21.1084 3.66649 21.098 3.64849 21.0936 3.64129C21.0487 3.5655 21.0042 3.49312 20.9603 3.42378C20.9534 3.41317 20.9451 3.39971 20.9396 3.39119C20.8949 3.32184 20.8492 3.25628 20.7971 3.1822C20.7886 3.17007 20.7776 3.15435 20.77 3.14392C20.7134 3.06586 20.6552 2.99216 20.5968 2.92035C20.5908 2.91277 20.5841 2.90481 20.5775 2.89685C20.515 2.82182 20.4506 2.75058 20.3854 2.68237C20.3753 2.67195 20.3636 2.65963 20.3553 2.65091C20.2867 2.581 20.2135 2.51279 20.1368 2.44552C20.1269 2.43681 20.1161 2.42733 20.1078 2.42032C20.026 2.35079 19.9384 2.28352 19.8615 2.2282C19.8547 2.22346 19.8395 2.21247 19.8327 2.20773C19.7414 2.14426 19.6446 2.08287 19.5443 2.02622C19.5439 2.02603 19.5437 2.02603 19.5434 2.02584C19.5396 2.02376 19.5356 2.02129 19.5318 2.01921C19.4325 1.96426 19.3277 1.91216 19.2199 1.86384C19.216 1.86213 19.2122 1.86043 19.2082 1.85872C18.7517 1.6575 18.2354 1.5406 17.6308 1.49683C17.5289 1.48925 17.4285 1.48584 17.3299 1.48584C14.6841 1.48584 13.4107 3.88666 13.2712 4.16689L10.691 9.39447L5.41868 10.1605C5.39916 10.1634 5.37964 10.1666 5.36013 10.17C3.94552 10.4233 2.3475 10.7132 1.41453 12.5922C1.39577 12.6301 1.37682 12.6682 1.3592 12.7061C1.33798 12.7514 1.31714 12.7972 1.30141 12.8336C1.26238 12.9236 1.22297 13.0161 1.18451 13.1169C1.14093 13.2311 1.10209 13.3516 1.06836 13.4736C1.0551 13.5212 1.04202 13.5686 1.02706 13.6313C1.01322 13.6889 1.00223 13.7459 0.99276 13.7958C0.968697 13.9202 0.950508 14.0445 0.937813 14.1662C0.937245 14.1726 0.936487 14.1794 0.935918 14.1859C0.78036 15.9599 1.80826 17.3044 2.26375 17.8007C2.28611 17.8251 2.30941 17.8488 2.33329 17.8721L6.58868 22.0206L5.60588 27.7484C5.59356 27.8202 5.58541 27.8926 5.582 27.9654C5.52383 29.1638 5.45108 30.6555 6.8367 31.9233L6.86379 31.9479C6.92291 32.0013 6.9843 32.0546 7.04929 32.1073C7.07051 32.1245 7.09287 32.1423 7.11522 32.1597L8.22194 30.74L7.13133 32.1722L7.14611 32.1838C7.18893 32.2175 7.23232 32.2511 7.27628 32.2831C7.35604 32.3416 7.4396 32.4004 7.53093 32.4608C7.63135 32.5273 7.73802 32.5915 7.85341 32.6537C7.88903 32.6728 7.92465 32.6901 7.96312 32.7088C8.03379 32.7435 8.10409 32.7782 8.17173 32.8072C8.21815 32.8271 8.26362 32.847 8.32028 32.8663C8.32141 32.8667 8.33733 32.8727 8.33846 32.8733C8.38962 32.8949 8.44211 32.9127 8.49535 32.9303C8.55276 32.9495 8.60941 32.9669 8.66663 32.982C8.66834 32.9826 8.69145 32.9891 8.69335 32.9896C8.73465 32.9997 8.77539 33.0124 8.80609 33.0198C8.87884 33.0376 8.95141 33.0527 9.02948 33.0677C9.05903 33.0734 9.08878 33.0793 9.11739 33.0838C9.19735 33.0969 9.27693 33.1075 9.36428 33.1168L9.40975 33.1215C9.49747 33.1298 9.58425 33.135 9.67084 33.138C9.67918 33.1384 9.68828 33.1387 9.69339 33.1387C10.614 33.1672 11.4273 32.8886 11.9315 32.6582C11.9625 32.644 11.993 32.6293 12.023 32.6131L12.3962 32.4165C12.4063 32.4114 12.4163 32.4059 12.4262 32.4004C12.4381 32.3945 12.45 32.3884 12.4618 32.3822L17.3296 29.8233L22.1871 32.3771C22.1945 32.3809 22.2013 32.3854 22.2091 32.3884C22.2096 32.3886 22.21 32.3888 22.2106 32.389L22.6757 32.634C22.7118 32.6529 22.7485 32.6707 22.7858 32.6872C22.8376 32.71 22.8923 32.7329 22.9376 32.7516C22.9617 32.7615 22.9871 32.7715 23.0119 32.781C23.0483 32.7952 23.0843 32.8092 23.1153 32.8206C23.1443 32.8314 23.1743 32.8418 23.2161 32.8564C23.2178 32.857 23.2356 32.8633 23.2373 32.8638L23.2959 32.8837C23.3385 32.8979 23.3821 32.9116 23.4225 32.9237L23.4922 32.9443C23.5413 32.9587 23.5911 32.9722 23.6495 32.9874L23.6923 32.9982C23.751 33.0126 23.8099 33.0262 23.8732 33.0395C23.8819 33.0414 23.8884 33.0425 23.8969 33.0442C24.2129 33.1071 24.5288 33.1414 24.8371 33.1414C25.6677 33.1414 26.4355 32.9125 27.1195 32.4606C29.0695 31.1711 29.1552 29.693 29.0648 27.8943C29.061 27.8227 29.0531 27.7513 29.0409 27.6806L28.0697 22.0206L32.4122 17.7878C32.4552 17.7459 32.4958 17.7021 32.5344 17.6561C32.5644 17.6205 32.5973 17.5797 32.6316 17.5365L32.6515 17.5111C32.6786 17.4765 32.7067 17.4399 32.7419 17.3925L32.7647 17.3615C32.7927 17.323 32.8215 17.2823 32.8535 17.2358L32.8816 17.1949C32.9177 17.1417 32.9539 17.086 32.9909 17.0274C32.992 17.0255 33.0093 16.9979 33.0106 16.9956C33.0449 16.9404 33.0788 16.8829 33.1114 16.8258C33.1258 16.8004 33.1402 16.7743 33.1544 16.7479L33.1663 16.7258C33.1859 16.69 33.205 16.654 33.2243 16.6163C33.2442 16.5774 33.2637 16.5382 33.2827 16.4994C33.2993 16.4645 33.3158 16.4293 33.3342 16.3885C33.3547 16.3432 33.3749 16.2979 33.3952 16.25C33.4058 16.225 33.4157 16.1992 33.4238 16.1786C33.4739 16.0513 33.5195 15.9222 33.5576 15.8013C33.5606 15.7921 33.564 15.7816 33.5659 15.7752C33.5678 15.7691 33.5697 15.7631 33.5714 15.757C33.5917 15.689 33.6097 15.6194 33.6309 15.5338L33.6463 15.4694C33.6631 15.3953 33.6783 15.3206 33.6902 15.2505L33.7033 15.1704C33.824 14.4015 33.7359 13.6531 33.4418 12.9456C32.4875 10.6509 30.8603 10.3858 29.2721 10.1673Z" fill="#6E6E6E"/>
<path d="M29.1127 10.0078C29.0862 10.0027 29.0595 9.99813 29.0324 9.99434L23.8069 9.23474L21.4691 4.49789C21.4242 4.40695 21.3805 4.31903 21.3386 4.23528C21.2996 4.15741 21.2615 4.08314 21.2234 4.00943C21.2209 4.00432 21.2111 3.98537 21.2084 3.98044C21.1681 3.90257 21.1285 3.82848 21.0921 3.76179C21.0887 3.75535 21.0779 3.73526 21.0745 3.72901C21.0318 3.65095 20.9896 3.57667 20.953 3.51434C20.9488 3.50695 20.9384 3.48895 20.9341 3.48156C20.8895 3.40577 20.8446 3.33339 20.8007 3.26423C20.7939 3.25343 20.7853 3.24017 20.78 3.23164C20.7353 3.16229 20.69 3.09636 20.6373 3.02246C20.629 3.01034 20.6178 2.9948 20.6104 2.98419C20.5538 2.90613 20.496 2.83204 20.4373 2.7608C20.431 2.75322 20.4246 2.74526 20.4179 2.7373C20.3554 2.66227 20.2912 2.59084 20.2258 2.52282C20.216 2.5124 20.2042 2.50008 20.1957 2.49137C20.1271 2.42145 20.0543 2.35286 19.9772 2.28598C19.9674 2.27726 19.9566 2.26779 19.9482 2.26078C19.8664 2.19105 19.7792 2.12341 19.7017 2.06865C19.6949 2.06373 19.6797 2.05293 19.6731 2.04819C19.582 1.98453 19.485 1.92333 19.3847 1.86667C19.3844 1.86648 19.3842 1.86629 19.3838 1.8661C19.38 1.86402 19.3762 1.86175 19.3722 1.85966C19.2733 1.80415 19.1684 1.75185 19.0604 1.70429C19.0564 1.70259 19.0524 1.70069 19.0484 1.69918C18.5914 1.49928 18.0757 1.38105 17.4711 1.33709C17.3693 1.3297 17.2689 1.32629 17.1702 1.32629C14.5245 1.32629 13.2509 3.72712 13.1115 4.00716L10.5312 9.23474L5.2591 10.001C5.23939 10.0038 5.21987 10.0068 5.20055 10.0104C3.78613 10.2638 2.18299 10.5512 1.25495 12.4325C1.236 12.4704 1.21743 12.5085 1.19981 12.5464C1.17859 12.5916 1.15756 12.6373 1.14202 12.6737C1.10242 12.7635 1.06358 12.8561 1.02512 12.9569C0.981538 13.0714 0.942506 13.1917 0.90897 13.3137C0.895706 13.3613 0.883012 13.4088 0.867664 13.4716C0.854212 13.5292 0.842843 13.5862 0.83337 13.636C0.809117 13.7603 0.790548 13.8848 0.778233 14.0064C0.777475 14.0129 0.776906 14.0195 0.776338 14.0261C0.607138 15.7991 1.64849 17.1447 2.10436 17.6409C2.12672 17.6654 2.15002 17.6892 2.17371 17.7124L6.4291 21.8609L5.4463 27.5887C5.43398 27.6603 5.42602 27.7329 5.42242 27.8056C5.36406 29.004 5.2915 30.4956 6.67712 31.7635L6.70421 31.788C6.76333 31.8414 6.82453 31.8947 6.88952 31.9475C6.91074 31.9648 6.9331 31.9826 6.95564 31.9998L8.06217 30.5801L6.97156 32.0123L6.98634 32.0239C7.02935 32.0576 7.07274 32.0911 7.11651 32.1232C7.19627 32.1819 7.27983 32.2404 7.37116 32.3011C7.47158 32.3676 7.57863 32.4314 7.69383 32.494C7.72964 32.5131 7.76489 32.5307 7.80354 32.5491C7.87383 32.5843 7.94432 32.6184 8.01215 32.6476C8.05838 32.6675 8.10461 32.6855 8.16051 32.7067C8.16164 32.7071 8.17756 32.7134 8.17888 32.7137C8.23061 32.7336 8.28253 32.7532 8.33577 32.7708C8.39299 32.7897 8.44983 32.8064 8.50705 32.8225C8.50895 32.8231 8.53206 32.8295 8.53377 32.8301C8.5747 32.8416 8.61581 32.853 8.64632 32.8602C8.71926 32.8784 8.79183 32.8934 8.86971 32.9081C8.89926 32.914 8.92901 32.9195 8.95762 32.9243C9.03758 32.9375 9.11716 32.9479 9.20451 32.9574L9.24998 32.962C9.33771 32.9703 9.42448 32.9758 9.51107 32.9786C9.51941 32.979 9.52851 32.9792 9.53362 32.9794C10.4543 33.0046 11.2675 32.7293 11.7719 32.4991C11.8028 32.4849 11.8333 32.4699 11.8634 32.454L12.2367 32.2573C12.2467 32.252 12.2565 32.2467 12.2666 32.2412C12.2785 32.2353 12.2903 32.2293 12.3022 32.223L17.17 29.6642L22.0275 32.2179C22.0349 32.2217 22.0421 32.2255 22.0493 32.2291C22.0499 32.2293 22.0503 32.2296 22.0508 32.2298L22.516 32.4748C22.552 32.4938 22.5885 32.5116 22.6259 32.5279C22.6776 32.5508 22.7324 32.5739 22.7778 32.5925C22.8019 32.6023 22.8273 32.6124 22.8521 32.6217C22.8883 32.6361 22.9243 32.6499 22.9556 32.6615C22.9845 32.6723 23.0143 32.6827 23.0562 32.6973C23.0581 32.6978 23.0759 32.7041 23.0774 32.7047L23.1359 32.7245C23.1786 32.7388 23.2221 32.7522 23.2625 32.7645L23.332 32.7852C23.3811 32.7994 23.4311 32.813 23.4893 32.828L23.5323 32.8386C23.5909 32.8532 23.65 32.8667 23.7133 32.8799C23.722 32.8818 23.7282 32.8829 23.7368 32.8847C24.0524 32.9491 24.3687 32.9819 24.6767 32.9819C25.5074 32.9819 26.2753 32.753 26.9593 32.3011C28.9094 31.0115 28.9952 29.5332 28.9047 27.7348C28.9011 27.6631 28.8931 27.5917 28.8812 27.521L27.9099 21.8609L32.2525 17.628C32.2955 17.5862 32.336 17.5422 32.3747 17.4964C32.4046 17.4607 32.4376 17.4202 32.4719 17.3768L32.4717 17.3766L32.4918 17.3512C32.5189 17.3165 32.5467 17.28 32.5821 17.2326L32.6049 17.2015C32.6329 17.1631 32.6617 17.1223 32.6937 17.0759L32.7218 17.035C32.7578 16.9817 32.7942 16.926 32.8311 16.8675C32.8322 16.8654 32.8495 16.8379 32.8508 16.8357C32.8849 16.7803 32.9192 16.7229 32.9516 16.6659C32.9662 16.6405 32.9804 16.6144 32.9948 16.588L33.0068 16.5659C33.0263 16.53 33.0454 16.4939 33.0647 16.4563C33.0846 16.4175 33.1041 16.3783 33.1229 16.3394C33.1398 16.3046 33.1561 16.2693 33.1744 16.2288C33.1951 16.1835 33.2154 16.1382 33.2355 16.0903C33.2461 16.0653 33.2561 16.0395 33.2639 16.0188C33.315 15.8919 33.3607 15.7627 33.3978 15.6416C33.4009 15.6325 33.4043 15.6219 33.4062 15.6155C33.4081 15.6094 33.41 15.6033 33.4117 15.5975C33.4319 15.5292 33.4499 15.4599 33.4712 15.3743L33.4865 15.3096C33.5034 15.2356 33.5185 15.1609 33.5305 15.0908L33.5433 15.0107C33.664 14.242 33.5759 13.4933 33.2819 12.7859C32.3277 10.4913 30.7007 10.2261 29.1127 10.0078Z" fill="#606060"/>
<path d="M31.6194 13.4772C31.0647 12.1426 30.372 11.9971 28.7734 11.778V11.7756L22.6113 10.8801L19.8546 5.29445C19.1405 3.84782 18.7836 3.23695 17.3417 3.13255C15.6258 3.00883 14.7402 4.77453 14.7254 4.80409L11.7268 10.8799L5.51793 11.7822C3.91688 12.0691 3.22321 12.2474 2.70633 13.5993C2.20574 14.9085 3.07391 16.0361 3.42974 16.4238L8.36269 21.2328L7.21997 27.8934C7.14892 29.357 7.21126 30.0378 8.36363 30.8001C9.35079 31.4522 10.4344 31.1309 11.0237 30.8618L11.3969 30.6652C11.4407 30.6388 11.4657 30.6222 11.4657 30.6222L11.4642 30.6299L17.1696 27.6307L22.8646 30.6248L22.8642 30.6222C22.8642 30.6222 22.8737 30.628 22.8889 30.6375L23.354 30.8823C23.952 31.1468 25.0042 31.4358 25.9663 30.8003C27.1365 30.0264 27.1827 29.3362 27.1068 27.8259L25.9756 21.233L30.9959 16.3396C31.3347 15.9338 32.1562 14.7681 31.6194 13.4772Z" fill="#EB8225"/>
<g opacity="0.5">
<path d="M17.5154 10.5345C17.5154 13.3156 17.3519 16.1069 17.4395 18.8876C18.78 15.9648 20.619 13.3514 22.5789 10.8142L19.8549 5.2946C19.1711 3.90935 18.812 3.29167 17.5153 3.15051L17.5154 10.5345Z" fill="#EB8225"/>
<path d="M21.8905 23.1123C20.8373 23.089 19.8164 23.2527 18.7858 23.4824C18.2561 23.5998 17.7337 23.7065 17.2014 23.7419C17.152 24.0424 17.1162 24.3458 17.09 24.6486C17.0806 25.6621 17.065 26.6746 17.0607 27.6881L17.1698 27.6307L22.8648 30.6248L22.8644 30.6221C22.8644 30.6221 22.8739 30.628 22.8891 30.6375L23.3542 30.8823C23.8882 31.1185 24.7836 31.3713 25.6533 30.9723C25.1754 30.0292 24.6514 29.1054 24.2101 28.15C23.4353 26.4711 22.6744 24.7863 21.8905 23.1123Z" fill="#EB8225"/>
<path d="M14.1989 22.895C11.7558 25.1011 9.73698 27.6879 7.7782 30.3247C7.93243 30.485 8.12266 30.6401 8.36386 30.7999C8.82296 31.1038 9.30327 31.1945 9.74494 31.1798C10.1091 30.3665 10.4755 29.5539 10.9053 28.7679C11.9815 26.7976 13.1763 24.8934 14.1989 22.895Z" fill="#EB8225"/>
<path d="M5.46947 15.0787C6.04396 15.2926 6.62962 15.4728 7.2185 15.6471C6.81189 15.3869 6.41078 15.12 6.0108 14.8602C5.02288 14.219 4.01375 13.5993 2.99059 13.007C2.88827 13.1752 2.79467 13.3687 2.70638 13.5993C2.6285 13.8033 2.58625 14.0036 2.56787 14.1965C3.51505 14.593 4.65739 14.7766 5.46947 15.0787Z" fill="#EB8225"/>
<path d="M12.6706 8.96716L11.7268 10.8801C12.85 11.5804 14.7031 13.2849 15.3977 14.4918C14.8224 12.8972 13.4099 10.5813 12.6706 8.96716Z" fill="#EB8225"/>
<path d="M27.2617 15.6301C26.1772 16.0278 25.09 16.421 24.025 16.8676C23.319 17.1634 22.4656 17.3981 21.7439 17.7629C22.646 17.5391 23.7286 17.0453 24.3457 17.6632C24.5672 17.8841 24.4056 18.1644 24.2141 18.3307C23.9204 18.5857 23.6132 18.8497 23.3213 19.1293C24.1963 19.8607 25.1468 20.4877 26.0971 21.1139L30.9959 16.3393C31.2676 16.0152 31.8457 15.204 31.7917 14.2314C30.2787 14.6875 28.747 15.085 27.2617 15.6301Z" fill="#EB8225"/>
</g>
<path d="M29.5199 13.5661C29.0457 12.4247 28.454 12.301 27.0882 12.1134C27.0882 12.1134 27.0882 12.1117 27.0882 12.1109L21.8214 11.3456L19.4659 6.57222C18.855 5.33571 18.5504 4.81333 17.3176 4.72428C15.8519 4.61874 15.0944 6.12828 15.0822 6.15367L12.519 11.3458L7.21225 12.1177C5.84463 12.3625 5.25215 12.5139 4.80973 13.6697C4.38152 14.7886 5.12331 15.752 5.42817 16.084L9.64377 20.1937L8.66779 25.8866C8.6064 27.1367 8.65983 27.7194 9.64453 28.3695C10.4884 28.9275 11.4144 28.6531 11.9178 28.4229L12.2369 28.2552C12.2744 28.2321 12.2958 28.2173 12.2958 28.2173L12.2951 28.2249L17.1706 25.6613L22.038 28.22L22.0376 28.2173C22.0376 28.2173 22.0452 28.2236 22.0579 28.2308L22.456 28.4394C22.9677 28.6662 23.8666 28.9132 24.6889 28.3693C25.6884 27.7088 25.7282 27.1184 25.663 25.8279L24.6963 20.1933L28.9871 16.0108C29.2772 15.6649 29.979 14.6682 29.5199 13.5661Z" fill="#F4C23C"/>
<path opacity="0.9" d="M25.8095 25.8111L25.8076 25.803L24.7994 20.2255L28.9872 16.011L24.6299 20.1247L24.5937 20.1588L24.602 20.2092L25.5157 25.8414C25.5232 26.0756 25.5331 26.3106 25.5261 26.5383C25.5213 26.7699 25.4997 26.9967 25.4414 27.2062C25.4266 27.3176 25.3622 27.405 25.3267 27.5067C25.2765 27.6007 25.2062 27.6826 25.1477 27.7728L24.9181 27.9977L24.6304 28.2095C24.5505 28.2654 24.4421 28.3133 24.3506 28.3666C24.2522 28.4141 24.1441 28.4378 24.0431 28.4753C23.936 28.4958 23.8278 28.5138 23.7191 28.5248C23.609 28.52 23.4991 28.5363 23.3888 28.517C23.1685 28.5005 22.9475 28.4397 22.7416 28.3707L22.5771 28.3052L22.5362 28.2889C22.5362 28.2889 22.5314 28.2864 22.5286 28.2855L22.511 28.276L22.4318 28.2341L22.1402 28.0795L21.8266 27.9137L21.8274 27.9139L17.2578 25.4953L17.1703 25.449L17.0827 25.4953L12.4963 27.9243L12.5022 27.8648L12.2013 28.0733C12.1318 28.1229 12.0028 28.1824 11.9065 28.2362C11.8184 28.2845 11.7061 28.3279 11.6037 28.3662C11.3942 28.4435 11.1765 28.4933 10.958 28.5162C10.8491 28.5331 10.7401 28.5216 10.6314 28.5259C10.5235 28.5151 10.4155 28.4979 10.3106 28.481C10.2126 28.4456 10.1173 28.4247 10.0154 28.3832C9.91818 28.3306 9.79218 28.266 9.71904 28.222L9.44753 28.0231C9.36208 27.9514 9.2897 27.8709 9.20879 27.7974C9.14039 27.7146 9.0826 27.6263 9.02178 27.5397C8.98408 27.4404 8.92515 27.351 8.9009 27.2453C8.87816 27.1397 8.83913 27.0393 8.83401 26.9254C8.82321 26.8146 8.80445 26.7049 8.80692 26.5889C8.7982 26.3631 8.80692 26.1319 8.81336 25.9009L9.73704 20.2092L9.745 20.1595L9.70919 20.1258L5.42822 16.0837L9.54208 20.2251L8.52347 25.8619L8.52195 25.8703L8.52157 25.8795C8.51077 26.1168 8.49694 26.3538 8.50243 26.5971C8.49808 26.7172 8.51513 26.8415 8.52517 26.965C8.52915 27.0876 8.57045 27.2125 8.5966 27.3364C8.6254 27.4607 8.6938 27.5763 8.74307 27.6956C8.81393 27.8027 8.88631 27.9124 8.96797 28.01C9.05892 28.0975 9.14627 28.1919 9.24043 28.2715L9.53715 28.4931C9.66485 28.5704 9.75088 28.611 9.8602 28.672C9.97445 28.7216 10.109 28.7601 10.2327 28.8008C10.3593 28.8245 10.4853 28.8446 10.6115 28.8577C10.7369 28.855 10.8654 28.8664 10.9898 28.8488C11.2405 28.8245 11.4851 28.7688 11.7184 28.6853C11.8366 28.6411 11.9465 28.6004 12.0645 28.5375C12.0746 28.532 12.0823 28.5284 12.0913 28.5233V28.5242L12.1922 28.4719C12.2027 28.4668 12.2135 28.4607 12.2243 28.4549L12.3747 28.3764L17.1707 25.8729L21.9577 28.3726L21.9996 28.394L22.0358 28.4128L22.115 28.4537L22.1612 28.4784L22.2508 28.5255V28.5246L22.2736 28.5367L22.3524 28.5776L22.3723 28.5879C22.4102 28.6064 22.3946 28.5985 22.4081 28.6042L22.45 28.6214L22.6175 28.6864C22.8621 28.769 23.104 28.8325 23.3596 28.8512C23.4849 28.8713 23.6147 28.8552 23.7424 28.8573C23.8697 28.8435 23.9974 28.8221 24.1232 28.7969C24.2449 28.7533 24.372 28.7228 24.4876 28.6652C24.6011 28.6006 24.7132 28.5521 24.8275 28.4704L25.1132 28.2574L25.3936 27.9819C25.4673 27.8741 25.5501 27.771 25.611 27.6558C25.6566 27.5342 25.7311 27.4181 25.7497 27.2909C25.8181 27.0399 25.8325 26.7879 25.834 26.5444C25.8376 26.2986 25.8218 26.0609 25.8101 25.8212V25.8111H25.8095Z" fill="#F4C23C"/>
<path opacity="0.7" d="M17.3296 16.4273C21.4347 16.3106 25.931 15.6279 29.3663 13.2426C28.9131 12.4006 28.3121 12.2807 27.0883 12.1134C27.0883 12.1134 27.0883 12.1117 27.0883 12.1109L21.8215 11.3456L19.4659 6.57222C18.8551 5.33571 18.5504 4.81333 17.3177 4.72428C15.8519 4.61874 15.0944 6.12828 15.0823 6.15367L12.5191 11.3458L7.21228 12.1177C5.94053 12.3449 5.33971 12.4938 4.90601 13.4399C8.33188 16.0552 13.1398 16.5471 17.3296 16.4273Z" fill="#F4C23C"/>
<path opacity="0.9" d="M17.4165 6.8649C17.3021 6.20761 16.8719 5.66041 16.2006 6.06115C15.6146 6.40959 15.283 7.19003 14.9799 7.7685C14.5361 8.61469 13.6859 10.0337 13.9275 11.028C14.0958 11.7211 14.7747 11.5021 15.2406 11.2133C16.0305 10.7228 16.5044 10.1587 16.9385 9.33753C17.3096 8.63363 17.5556 7.66126 17.4165 6.8649Z" fill="#F4C23C"/>
<path opacity="0.9" d="M13.4016 12.3386C13.428 12.1509 13.3619 11.983 13.104 11.9314C12.6906 11.8492 12.2792 12.2949 12.1149 12.6166C11.9103 13.0179 12.2133 13.3906 12.635 13.3224C12.8304 13.2909 13.0091 13.109 13.1339 12.9686C13.2789 12.8051 13.3918 12.6103 13.41 12.3904C13.4111 12.3705 13.4032 12.3559 13.4016 12.3386Z" fill="#F4C23C"/>
</svg>
